<?xml version="1.0" encoding="utf-8"?>
<!-- Generator: Adobe Illustrator 27.5.0, SVG Export Plug-In . SVG Version: 6.00 Build 0)  -->
<svg version="1.1" xmlns="http://www.w3.org/2000/svg" xmlns:xlink="http://www.w3.org/1999/xlink" x="0px" y="0px"
	 viewBox="0 0 3710 3710" style="enable-background:new 0 0 3710 3710;" xml:space="preserve">
<g id="Background">
	<g>
		<g>
			<rect style="fill:#FFFFFF;" width="3710" height="3710"/>
		</g>
	</g>
</g>
<g id="Illustration">
	<g>
		<path style="fill:#F4F7FA;" d="M1883.773,455.639C1159.107,433.964,531.394,966.556,436.557,1665.383
			c-103.69,764.073,467.008,1451.554,1169.227,1561.664c873.443,136.96,1720.633-655.364,1644.564-1514.918
			C3193.038,1064.532,2620.41,477.671,1883.773,455.639z"/>
		<g>
			<g>
				
					<linearGradient id="SVGID_1_" gradientUnits="userSpaceOnUse" x1="3783.2373" y1="511.7966" x2="4571.1611" y2="2582.1335" gradientTransform="matrix(-0.9931 0.1174 0.1174 0.9931 6594.2749 -454.1121)">
					<stop  offset="0" style="stop-color:#AA80F9"/>
					<stop  offset="0.9964" style="stop-color:#6165D7"/>
				</linearGradient>
				<path style="fill:url(#SVGID_1_);" d="M2723.012,2086.137c48.121,67.878,29.106,148.206,6.916,204.007
					c-7.49,1.433-11.461,4.321-18.696,7.567c-65.302,29.294-98.94,26.766-167.526,44.667c-14.762,3.853-61.277,0.931-80.212-1.579
					l-35.23-5.291c0,0-92.198-169.705-9.084-236.681c83.115-66.976,14.485-240.151-11.401-336.734
					c-70.237-262.056,221.63-291.084,158.289-635.049c-16.847-91.484-79.565-260.317-15.934-347.446
					c72.493-99.265,151.705-29.717,195.347-109.583c68.212-124.827,204.287-190.266,310.36-94.433
					c104.69,94.583,42.871,332.884-179.109,556.308c-141.094,178.326-135.568,222.87-102.458,327.706
					c23.192,73.432,131.117,255.93,43.584,352.985C2730.325,1909.636,2668.001,2008.54,2723.012,2086.137z"/>
				<g>
					<defs>
						<path id="SVGID_00000056421960237062483810000009385639809323190686_" d="M2696.796,2359.139l-261.739-18.101
							c0,0-98.991-175.236-15.876-242.212c83.114-66.976,14.485-240.151-11.401-336.734
							c-70.237-262.056,221.63-291.084,158.289-635.049c-16.847-91.484-79.565-260.317-15.934-347.446
							c72.493-99.265,151.705-29.717,195.347-109.583c68.211-124.827,204.287-190.266,310.36-94.433
							c104.689,94.583,42.871,332.884-179.109,556.308c-141.094,178.326-135.569,222.87-102.458,327.706
							c23.192,73.432,131.117,255.93,43.584,352.985s-149.857,195.96-94.846,273.557
							C2806.717,2204.211,2696.796,2359.139,2696.796,2359.139z"/>
					</defs>
					<clipPath id="SVGID_00000122680649327308182180000008057338544034553772_">
						<use xlink:href="#SVGID_00000056421960237062483810000009385639809323190686_"  style="overflow:visible;"/>
					</clipPath>
					<g style="opacity:0.5;clip-path:url(#SVGID_00000122680649327308182180000008057338544034553772_);">
						<path style="fill:#FCFDFE;" d="M2580.421,2338.475l-5.191,0.306c-1.829-30.938-3.29-62.161-4.345-92.802
							c-7.794-226.875,5.871-446.266,40.621-652.085c29.446-174.396,74.405-341.509,133.628-496.696
							c47.627-124.801,104.697-242.603,169.625-350.132c45.645-75.591,94.669-145.365,145.718-207.378
							c8.894-10.809,18.595-21.365,27.977-31.574c12.5-13.601,25.425-27.666,36.54-42.438l4.155,3.129
							c-11.267,14.975-24.279,29.135-36.863,42.83c-9.336,10.158-18.988,20.662-27.792,31.361
							c-50.888,61.819-99.768,131.384-145.282,206.762c-64.768,107.263-121.699,224.785-169.218,349.298
							c-59.101,154.868-103.97,321.648-133.359,495.707c-34.692,205.471-48.334,424.513-40.55,651.037
							C2577.135,2276.398,2578.594,2307.577,2580.421,2338.475z"/>
						<path style="fill:#FCFDFE;" d="M2685.753,1290.813l-5.033-1.313c56.456-215.997-93.392-568.006-94.913-571.535l4.778-2.059
							C2592.112,719.453,2742.66,1073.087,2685.753,1290.813z"/>
						<path style="fill:#FCFDFE;" d="M2580.794,1908.887l-5.151-0.72c21.192-151.281,267.561-310.634,270.047-312.227l2.806,4.382
							C2846.03,1601.901,2601.654,1759.97,2580.794,1908.887z"/>
						<path style="fill:#FCFDFE;" d="M2576.19,1995.762l-5.198,0.199c-3.849-99.642-62.335-233.471-164.686-376.829
							c-5.147-7.209-5.147-7.209-5.198-8.195l5.196-0.264l-2.598,0.132l2.35-1.091c0.287,0.519,2.23,3.241,4.484,6.395
							C2513.474,1760.286,2572.304,1895.114,2576.19,1995.762z"/>
						<path style="fill:#FCFDFE;" d="M2577.883,2281.968l-5.036-1.294c27.344-106.372,175.633-173.805,177.126-174.474l2.126,4.747
							C2750.626,2111.606,2604.602,2178.032,2577.883,2281.968z"/>
						<path style="fill:#FCFDFE;" d="M2572.762,2340.303c-34.995-81.358-94.494-155.329-181.897-226.138l3.276-4.043
							c88.073,71.355,148.063,145.977,183.399,228.127L2572.762,2340.303z"/>
						<path style="fill:#FCFDFE;" d="M2882.01,813.712l-4.95-1.594c38.082-118.342,50.657-251.496,54.789-295.251
							c1-10.592,1.365-14.319,1.717-15.595l5.013,1.386c-0.256,0.978-0.828,7.033-1.551,14.699
							C2932.882,561.252,2920.266,694.829,2882.01,813.712z"/>
						<path style="fill:#FCFDFE;" d="M2791.631,996.968l-4.262-2.982c66.808-95.538,296.523-135.401,306.27-137.052l0.867,5.129
							C3092.142,862.465,2857.192,903.215,2791.631,996.968z"/>
					</g>
				</g>
			</g>
			<g>
				<defs>
					<path id="SVGID_00000121245197920120829280000006521575720850937750_" d="M2494.399,2548.127l269.881,32.337
						c0,0,67.594-130.684,13.307-235.131c-110.763-213.105,85.893-294.07,163.126-340.154
						c116.473-69.499,188.432-180.927,38.347-251.175c-150.085-70.247,36.491-290.886,240.968-376.345
						c200.095-83.627,165.083-483.279-284.821-341.563c-268.681,84.632-261.545,356.031-290.923,493.931
						s-240.608,124.292-189.702,303.152c43.483,152.779,147.004,272.786,45.791,362.112
						C2399.159,2284.618,2376.196,2395.617,2494.399,2548.127z"/>
				</defs>
				<clipPath id="SVGID_00000160187834600060904700000008636220750124088738_">
					<use xlink:href="#SVGID_00000121245197920120829280000006521575720850937750_"  style="overflow:visible;"/>
				</clipPath>
				
					<linearGradient id="SVGID_00000054968193486079288320000007906427547767369132_" gradientUnits="userSpaceOnUse" x1="1083.4717" y1="1769.4683" x2="547.5267" y2="3292.6819" gradientTransform="matrix(0.9927 0.1204 -0.1204 0.9927 2294.7661 -836.3139)">
					<stop  offset="0.0036" style="stop-color:#E38DDD"/>
					<stop  offset="1" style="stop-color:#9571F6"/>
				</linearGradient>
				
					<path style="clip-path:url(#SVGID_00000160187834600060904700000008636220750124088738_);fill:url(#SVGID_00000054968193486079288320000007906427547767369132_);" d="
					M2494.399,2548.127l269.881,32.337c0,0,67.594-130.684,13.307-235.131c-110.763-213.105,85.893-294.07,163.126-340.154
					c116.473-69.499,176.395-170.148,56.935-254.409c-135.163-95.337,17.903-287.652,222.38-373.11
					c200.095-83.627,165.083-483.279-284.821-341.563c-268.681,84.632-261.545,356.031-290.923,493.931
					s-240.608,124.292-189.702,303.152c43.483,152.779,147.004,272.786,45.791,362.112
					C2399.159,2284.618,2376.196,2395.617,2494.399,2548.127z"/>
				<g style="opacity:0.5;clip-path:url(#SVGID_00000160187834600060904700000008636220750124088738_);">
					<path style="fill:#BEB8F2;" d="M2608.166,2586.868l5.729-0.344c-0.215-3.505-20.487-354.53,65.628-708.5
						c79.332-326.102,267.822-721.505,715.261-753.315l-0.411-5.655c-199.179,14.159-364.482,100.294-491.321,256.009
						c-101.322,124.39-178.415,293.202-229.138,501.747C2587.626,2231.593,2607.952,2583.355,2608.166,2586.868z"/>
					<path style="fill:#BEB8F2;" d="M2852.894,1442.394l5.741-0.02c-0.605-188.711,103.506-444.196,104.557-446.755l-5.317-2.135
						C2956.82,996.055,2852.286,1252.576,2852.894,1442.394z"/>
					<path style="fill:#BEB8F2;" d="M2940.285,1340.929c206.286-95.071,378.525-16.956,380.239-16.156l2.451-5.125
						c-1.74-0.815-176.301-80.093-385.116,16.142L2940.285,1340.929z"/>
					<path style="fill:#BEB8F2;" d="M2635.986,2112.468c96.282-257.741,469.614-279.049,473.269-278.957l0.522-5.641
						c-3.578-0.427-382.038,22.605-479.175,282.635L2635.986,2112.468z"/>
					<path style="fill:#BEB8F2;" d="M2648.032,1999.808l5.721-0.479c-14.954-174.687-187.647-314.345-189.391-315.736l-3.606,4.41
						C2462.482,1689.38,2633.292,1827.559,2648.032,1999.808z"/>
					<path style="fill:#BEB8F2;" d="M2611.936,2531.218c20.896-102.304,180.208-166.205,181.814-166.84l-2.126-5.264
						c-6.677,2.629-163.801,65.66-185.313,170.984L2611.936,2531.218z"/>
					<path style="fill:#BEB8F2;" d="M2606.004,2448.156l5.733-0.275c-4.042-82.424-116.552-187.185-153.523-221.609
						c-5.225-4.865-9.734-9.065-10.389-9.969l-4.716,3.231c0.905,1.289,3.895,4.089,11.169,10.864
						C2490.832,2264.435,2602.074,2368.016,2606.004,2448.156z"/>
				</g>
			</g>
			<g>
				
					<linearGradient id="SVGID_00000124877570653087756670000015776921951571944599_" gradientUnits="userSpaceOnUse" x1="6781.0122" y1="1250.0841" x2="7294.9126" y2="2096.0969" gradientTransform="matrix(-0.9789 0.2043 0.2043 0.9789 9362.4023 -942.3491)">
					<stop  offset="0" style="stop-color:#FF9085"/>
					<stop  offset="1" style="stop-color:#FB6FBB"/>
				</linearGradient>
				<path style="fill:url(#SVGID_00000124877570653087756670000015776921951571944599_);" d="M2817.949,2485.556
					c-0.782,0.559-1.567,1.116-2.354,1.672c-46.57,32.865-103.269,60.555-172.718,78.046c-13.778,2.455-27.556,4.909-41.333,7.364
					c-18.381-30.036-30.487-61.894,8.466-83.388c60.493-33.381,37.383-147.496,10.92-183.899
					c-32.754-45.057-106.867-151.536-14.159-204.612c77.178-44.186,136.011-56.924,118.673-164.873
					c-17.338-107.949,26.459-187.142,124.592-201.784c103.27-15.407,157.367-169.056,250.619-141.814
					c162.486,47.468,81.797,311.145-80.202,417.6c-162,106.455-46.782,148.159-23.076,234.436
					c32.364,117.785-134.304,127.27-166.713,183.331C2819.686,2446.622,2816.68,2466.608,2817.949,2485.556z"/>
				<g>
					<defs>
						<path id="SVGID_00000062913962173350870380000006115964976834611093_" d="M2836.893,2550.225l-222.24,46.379
							c-19.511-28.758-48.154-83.345-4.643-107.355c60.492-33.381,37.383-147.495,10.919-183.899
							c-32.754-45.056-106.867-151.535-14.159-204.612c77.178-44.186,136.011-56.924,118.673-164.873
							c-17.338-107.948,26.459-187.142,124.592-201.783c103.27-15.408,157.367-169.056,250.619-141.814
							c162.486,47.467,81.797,311.144-80.202,417.599c-161.999,106.455-46.782,148.159-23.076,234.436
							c32.364,117.786-134.304,127.27-166.713,183.33C2805.257,2471.581,2822.435,2520.895,2836.893,2550.225z"/>
					</defs>
					<clipPath id="SVGID_00000103253551795206016350000006462404894955837073_">
						<use xlink:href="#SVGID_00000062913962173350870380000006115964976834611093_"  style="overflow:visible;"/>
					</clipPath>
					<g style="opacity:0.5;clip-path:url(#SVGID_00000103253551795206016350000006462404894955837073_);">
						<path style="fill:#FCFDFE;" d="M2724.955,2537.104l-4.92,0.057c-4.084-359.643,166.397-719.507,444.914-939.156l3.046,3.863
							C2890.651,1820.593,2720.888,2178.955,2724.955,2537.104z"/>
						<path style="fill:#FCFDFE;" d="M2739.524,2340.835l-4.812,1.027c-29.484-138.239-170.811-220.753-172.235-221.57l2.449-4.267
							C2566.369,2116.851,2709.575,2200.417,2739.524,2340.835z"/>
						<path style="fill:#FCFDFE;" d="M2726.007,2470.925l-4.722-1.381c40.239-137.537,291.163-209.306,293.693-210.015l1.327,4.737
							C3013.803,2264.967,2765.481,2336.003,2726.007,2470.925z"/>
						<path style="fill:#FCFDFE;" d="M2846.536,2004.941l-4.824-0.971c22.491-111.434-77.556-254.186-78.569-255.615l4.011-2.847
							C2768.18,1746.954,2869.443,1891.449,2846.536,2004.941z"/>
						<path style="fill:#FCFDFE;" d="M2965.385,1809.874l-3.396-3.562c93.781-89.355,268.761-88.362,270.521-88.339l-0.057,4.92
							C3230.716,1722.868,3057.703,1721.91,2965.385,1809.874z"/>
					</g>
				</g>
			</g>
		</g>
		<g>
			<path style="fill:#97A6B7;" d="M726.004,2236.033c-67.254,6.284-122.483-44.109-122.483-112.392V822.791
				c0-68.283,55.229-122.487,122.483-120.844l2023.962,49.451c47.51,1.161,85.86,48.211,85.86,104.892V1936.1
				c0,56.681-38.35,106.378-85.86,110.817L726.004,2236.033z"/>
			
				<linearGradient id="SVGID_00000147203963412094896910000003431017725539897000_" gradientUnits="userSpaceOnUse" x1="616.771" y1="2484.197" x2="3181.6318" y2="-66.0049">
				<stop  offset="0.0036" style="stop-color:#EBEFF2"/>
				<stop  offset="1" style="stop-color:#FFFFFF"/>
			</linearGradient>
			<path style="fill:url(#SVGID_00000147203963412094896910000003431017725539897000_);" d="M2749.966,784.985L726.004,741.719
				c-44.039-0.941-79.959,35.637-79.959,81.71v1296.64c0,46.073,35.92,80.173,79.959,76.193l2023.962-182.931
				c31.212-2.821,56.385-36.282,56.385-74.754V855.848C2806.352,817.376,2781.179,785.652,2749.966,784.985z"/>
			<g>
				<polygon style="fill:#D8DEE8;" points="2026.904,1898.995 1887.913,1909.425 1887.913,1657.3 2026.904,1649.826 				"/>
				<polygon style="fill:#D8DEE8;" points="2251.451,1882.144 2117.768,1892.176 2117.768,1563.533 2251.451,1557.281 				"/>
				<polygon style="fill:#D8DEE8;" points="2467.552,1865.927 2338.878,1875.583 2338.878,1447.039 2467.552,1442.219 				"/>
				<polygon style="fill:#D8DEE8;" points="2675.672,1850.309 2551.732,1859.61 2551.732,1300.594 2675.672,1297.485 				"/>
				<path style="fill:#D8DEE8;" d="M1887.902,1442.419c-3.151,0.112-6.354-0.417-9.442-1.663
					c-12.403-5.01-18.228-19.711-12.99-32.816c5.987-14.974,20.45-17.328,28.205-18.588c5.863-0.953,13.819-1.914,23.873-3.126
					c324.087-39.099,548.582-179.79,678.166-415.595c6.161-11.212,19.354-14.706,29.452-7.835
					c10.081,6.869,13.279,21.495,7.155,32.687c-87.086,159.192-215.746,278.706-385.107,355.014
					c-139.132,62.69-269.131,78.936-325.534,85.982c-9.383,1.171-19.054,2.382-23.547,3.216
					C1894.955,1441.347,1891.462,1442.292,1887.902,1442.419z M1910.123,1426.502c0,0-0.001,0.004-0.003,0.007
					C1910.122,1426.505,1910.122,1426.505,1910.123,1426.502z M1910.147,1426.445c-0.003,0.007-0.005,0.011-0.007,0.014
					C1910.142,1426.455,1910.143,1426.452,1910.147,1426.445z M1910.169,1426.387c0,0-0.005,0.014-0.008,0.021
					C1910.164,1426.401,1910.167,1426.394,1910.169,1426.387z M1910.193,1426.33c-0.004,0.01-0.007,0.018-0.01,0.028
					C1910.186,1426.348,1910.189,1426.341,1910.193,1426.33z M1910.216,1426.272c-0.003,0.011-0.008,0.022-0.012,0.032
					C1910.208,1426.294,1910.213,1426.283,1910.216,1426.272z M1910.241,1426.212c-0.005,0.014-0.01,0.025-0.015,0.04
					C1910.231,1426.237,1910.236,1426.226,1910.241,1426.212z M1910.27,1426.14c-0.007,0.018-0.015,0.036-0.022,0.054
					C1910.255,1426.176,1910.262,1426.158,1910.27,1426.14z"/>
				<path style="fill:#D8DEE8;" d="M2634.645,1108.466c-11.168,0.089-20.582-9.502-21.319-22.089l-6.098-104.182l-89.971,66.562
					c-10.013,7.394-23.591,4.484-30.319-6.538c-6.736-11.043-4.037-26.002,6.02-33.39l152.119-111.756l10.846,185.973
					c0.761,13.061-8.125,24.414-19.873,25.359C2635.579,1108.442,2635.109,1108.463,2634.645,1108.466z"/>
			</g>
			<g>
				<path style="opacity:0.68;fill:#D8DEE8;" d="M911.687,1018.987c0,22.813-19.221,41.367-43.01,41.442
					c-23.878,0.075-43.299-18.482-43.299-41.449c0-22.967,19.421-41.521,43.299-41.442
					C892.466,977.617,911.687,996.174,911.687,1018.987z"/>
				<polygon style="opacity:0.68;fill:#D8DEE8;" points="1680.168,1105.597 976.159,1110.597 976.159,927.387 1680.168,932.492 				
					"/>
				<path style="opacity:0.68;fill:#D8DEE8;" d="M911.687,1269.893c0,22.813-19.221,41.743-43.01,42.283
					c-23.878,0.542-43.299-17.635-43.299-40.602c0-22.967,19.421-41.901,43.299-42.289
					C892.466,1228.899,911.687,1247.08,911.687,1269.893z"/>
				<polygon style="opacity:0.68;fill:#D8DEE8;" points="1680.168,1341.473 976.159,1360.242 976.159,1177.032 1680.168,1168.368 
									"/>
				<path style="opacity:0.68;fill:#D8DEE8;" d="M911.687,1771.704c0,22.813-19.221,42.495-43.01,43.966
					c-23.878,1.476-43.299-15.942-43.299-38.908c0-22.967,19.421-42.66,43.299-43.983
					C892.466,1731.462,911.687,1748.891,911.687,1771.704z"/>
				<polygon style="opacity:0.68;fill:#D8DEE8;" points="1680.168,1769.949 976.159,1813.729 976.159,1722.124 1680.168,1683.397 
									"/>
				<path style="opacity:0.68;fill:#D8DEE8;" d="M911.687,1936.65c0,22.813-19.221,42.742-43.01,44.519
					c-23.878,1.783-43.299-15.385-43.299-38.352c0-22.967,19.421-42.91,43.299-44.539
					C892.466,1896.655,911.687,1913.837,911.687,1936.65z"/>
				<polygon style="opacity:0.68;fill:#D8DEE8;" points="1680.168,1925.015 976.159,1977.845 976.159,1886.241 1680.168,1838.462 
									"/>
			</g>
		</g>
		<g>
			<g>
				<ellipse style="fill:#B7C0CE;" cx="2735.983" cy="2922.496" rx="228.126" ry="93.104"/>
				
					<linearGradient id="SVGID_00000153707400893487472760000014478173720474130065_" gradientUnits="userSpaceOnUse" x1="2507.8569" y1="2891.542" x2="2964.1089" y2="2891.542">
					<stop  offset="0" style="stop-color:#D0D1D3"/>
					<stop  offset="0.9964" style="stop-color:#EBEFF2"/>
				</linearGradient>
				<path style="fill:url(#SVGID_00000153707400893487472760000014478173720474130065_);" d="M2964.109,2911.577
					c0,48.539-102.135,87.888-228.125,87.888c-125.991,0-228.127-39.35-228.127-87.888c0-48.538,102.135-127.959,228.127-127.959
					C2861.973,2783.618,2964.109,2863.04,2964.109,2911.577z"/>
				<path style="fill:#B7C0CE;" d="M2964.109,2911.577c0-48.539-102.135-127.959-228.125-127.959
					c-58.173,0-111.231,16.948-151.528,39.955c-2.82,5.909-4.135,11.784-3.6,17.363c2.616,27.309,47.157,44.099,72.724,49.636
					c64.383,13.946,95.823-24.555,148.909-23.087c32.82,0.907,78.3,17.395,132.244,87.221
					C2953.405,2941.963,2964.109,2927.256,2964.109,2911.577z"/>
				<path style="fill:#FFFFFF;" d="M2748.478,2827.705c-9.115,2.269-17.619,2.179-25.62,0.146
					c-7.257-1.843-12.239-8.557-12.239-16.046l0.001-257.232h50.727v256.928C2761.347,2819.221,2755.967,2825.842,2748.478,2827.705
					z"/>
				
					<linearGradient id="SVGID_00000178927338656654009640000001681003982577206668_" gradientUnits="userSpaceOnUse" x1="2710.6189" y1="2691.9829" x2="2761.3469" y2="2691.9829">
					<stop  offset="0" style="stop-color:#D0D1D3"/>
					<stop  offset="0.9964" style="stop-color:#EBEFF2"/>
				</linearGradient>
				<path style="fill:url(#SVGID_00000178927338656654009640000001681003982577206668_);" d="M2748.478,2827.705
					c-9.115,2.269-17.619,2.179-25.62,0.146c-7.257-1.843-12.239-8.557-12.239-16.046l0.001-257.232h50.727v256.928
					C2761.347,2819.221,2755.967,2825.842,2748.478,2827.705z"/>
				<g>
					
						<linearGradient id="SVGID_00000104675834904745902860000017968081562152307882_" gradientUnits="userSpaceOnUse" x1="2987.8035" y1="2638.041" x2="2894.7993" y2="2516.8538">
						<stop  offset="0" style="stop-color:#311944"/>
						<stop  offset="1" style="stop-color:#893976"/>
					</linearGradient>
					<path style="fill:url(#SVGID_00000104675834904745902860000017968081562152307882_);" d="M2467.948,2446.315l77.494-48.989
						c3.224-18.3,39.752-209.742,188.051-269.858c60.307-24.447,125.208-21.547,160.824-19.955
						c71.1,3.176,121.816,5.44,146.208,39.356c31.323,43.549-21.211,83.043-10.333,207.614
						c4.436,50.799,15.717,73.362,1.666,107.015c-16.832,40.313-55.865,62.658-86.215,75.236
						c-36.279,21.067-99.446,51.088-182.876,58.399c-140.532,12.316-245.447-47.968-281.526-71.032
						c-16.043-5.059-28.097-18.4-31.509-34.872C2446.274,2472.528,2453.531,2455.429,2467.948,2446.315z"/>
					
						<linearGradient id="SVGID_00000034054228683986437060000010802712730229498263_" gradientUnits="userSpaceOnUse" x1="2775.7764" y1="2367.335" x2="2895.2791" y2="2050.5588">
						<stop  offset="0" style="stop-color:#311944"/>
						<stop  offset="1" style="stop-color:#893976"/>
					</linearGradient>
					<path style="fill:url(#SVGID_00000034054228683986437060000010802712730229498263_);" d="M2909.942,2117.747
						c52.587,1.557,85.265,0.946,103.338,24.426c18.972,24.646-0.202,45.651-3.756,133.4
						c-3.241,79.996,10.864,111.628-14.987,155.961c0,0-13.137,22.527-33.877,39.449c-73.285,59.798-262.363,59.074-341.943-65.769
						c-63.489-99.599-37.017-246.406,37.578-294.984C2692.842,2086.432,2701.23,2111.566,2909.942,2117.747z"/>
					
						<linearGradient id="SVGID_00000128466908739751188470000002093698999739171204_" gradientUnits="userSpaceOnUse" x1="2708.9431" y1="2423.8398" x2="2707.1196" y2="2578.864">
						<stop  offset="0" style="stop-color:#311944"/>
						<stop  offset="1" style="stop-color:#893976"/>
					</linearGradient>
					<path style="fill:url(#SVGID_00000128466908739751188470000002093698999739171204_);" d="M2462.312,2402.322l77.494-48.989
						c0,0,207.57-68.243,399.625,27.976c21.504,10.777,34.887,33.025,34.887,57.08c0,18.456-11.085,35.107-28.115,42.229
						c-33.503,22.873-98.912,60.639-189.074,70.524c-143.344,15.713-249.997-49.927-281.525-71.035
						c-16.043-5.057-28.097-18.397-31.508-34.87C2440.637,2428.534,2447.894,2411.434,2462.312,2402.322z"/>
				</g>
			</g>
			<g>
				
					<linearGradient id="SVGID_00000087401765195958262510000014835597181975842473_" gradientUnits="userSpaceOnUse" x1="2242.9597" y1="2689.5979" x2="2381.5916" y2="3189.8782">
					<stop  offset="0" style="stop-color:#311944"/>
					<stop  offset="1" style="stop-color:#893976"/>
				</linearGradient>
				<path style="fill:url(#SVGID_00000087401765195958262510000014835597181975842473_);" d="M2379.567,2973.197
					c0,0,6.611,26.795,6.821,36.503c0.211,9.708-106.622,23.24-108.285,16.088c-1.663-7.152,16.222-20.169,29.133-25.292
					c12.912-5.124,50.786-19.071,50.786-19.071L2379.567,2973.197z"/>
				
					<linearGradient id="SVGID_00000061438092823393594950000005869803960667826832_" gradientUnits="userSpaceOnUse" x1="2366.3428" y1="3043.3" x2="2368.3521" y2="2874.5308">
					<stop  offset="0" style="stop-color:#FFC444"/>
					<stop  offset="0.9964" style="stop-color:#F36F56"/>
				</linearGradient>
				<path style="fill:url(#SVGID_00000061438092823393594950000005869803960667826832_);" d="M2351.371,2948.215l6.125,33.486
					c0,0,13.116,7.233,23.581,0l2.547-37.187L2351.371,2948.215z"/>
				
					<linearGradient id="SVGID_00000003066234484420145400000004653204398636967358_" gradientUnits="userSpaceOnUse" x1="2416.5244" y1="2641.4995" x2="2555.1575" y2="3141.7837">
					<stop  offset="0" style="stop-color:#311944"/>
					<stop  offset="1" style="stop-color:#893976"/>
				</linearGradient>
				<path style="fill:url(#SVGID_00000003066234484420145400000004653204398636967358_);" d="M2574.408,3001.88
					c0,0,6.612,26.794,6.822,36.503c0.211,9.708-106.624,23.24-108.286,16.088c-1.663-7.152,16.222-20.169,29.133-25.293
					c12.911-5.123,50.786-19.07,50.786-19.07L2574.408,3001.88z"/>
				
					<linearGradient id="SVGID_00000030449106461703620620000014201721414043286207_" gradientUnits="userSpaceOnUse" x1="2561.4978" y1="3045.6248" x2="2563.5071" y2="2876.8523">
					<stop  offset="0" style="stop-color:#FFC444"/>
					<stop  offset="0.9964" style="stop-color:#F36F56"/>
				</linearGradient>
				<path style="fill:url(#SVGID_00000030449106461703620620000014201721414043286207_);" d="M2546.212,2976.898l6.126,33.486
					c0,0,13.115,7.234,23.581,0l2.546-37.187L2546.212,2976.898z"/>
				
					<linearGradient id="SVGID_00000109723575728135489880000011998860495286277794_" gradientUnits="userSpaceOnUse" x1="2269.0601" y1="2500.5156" x2="2448.7522" y2="2500.5156">
					<stop  offset="0" style="stop-color:#444B8C"/>
					<stop  offset="0.9964" style="stop-color:#26264F"/>
				</linearGradient>
				<path style="fill:url(#SVGID_00000109723575728135489880000011998860495286277794_);" d="M2300.203,2065.305
					c-10.38,26.121-20.762,52.243-31.143,78.363c1.523,144.2,9.064,300.529,25.609,467.034
					c12.309,123.879,28.359,240.878,46.723,350.438c16.743-2.116,33.486-4.238,50.23-6.354
					c20.436-50.176,43.267-125.542,38.679-215.949c-4.784-94.303-34.309-104.509-39.719-194.735
					c-7.01-116.943,39.453-152.017,54.282-294.547c5.671-54.508,6.766-125.196-8.037-209.664
					C2391.286,2048.361,2345.745,2056.836,2300.203,2065.305z"/>
				
					<linearGradient id="SVGID_00000111183356481661328750000007217916768072886956_" gradientUnits="userSpaceOnUse" x1="2269.0613" y1="2500.5156" x2="2448.7524" y2="2500.5156">
					<stop  offset="0" style="stop-color:#444B8C"/>
					<stop  offset="0.9964" style="stop-color:#26264F"/>
				</linearGradient>
				<path style="opacity:0.3;fill:url(#SVGID_00000111183356481661328750000007217916768072886956_);" d="M2436.828,2039.891
					c-24.595,4.573-49.19,9.148-73.786,13.727c-38.421,81.272-44.406,163.139-33.705,198.28
					c15.139,49.721,45.759,63.583,48.22,114.524c2.434,50.404-26.142,65.815-40.185,126.579
					c-9.719,42.07-3.264,79.518,10.048,152.697c26.811,147.406,66.335,189.974,40.183,241.103
					c-7.432,14.527-21.499,32.247-50.64,47.25c1.468,9.053,2.927,18.137,4.429,27.089c16.743-2.113,33.486-4.238,50.23-6.351
					c20.436-50.182,43.267-125.543,38.679-215.951c-4.784-94.304-34.309-104.511-39.719-194.736
					c-7.01-116.943,39.453-152.014,54.282-294.545C2450.536,2195.049,2451.631,2124.36,2436.828,2039.891z"/>
				
					<linearGradient id="SVGID_00000061438745095197252010000013518685779631169717_" gradientUnits="userSpaceOnUse" x1="2370.5095" y1="2526.1868" x2="2643.2798" y2="2526.1868">
					<stop  offset="0" style="stop-color:#444B8C"/>
					<stop  offset="0.9964" style="stop-color:#26264F"/>
				</linearGradient>
				<path style="fill:url(#SVGID_00000061438745095197252010000013518685779631169717_);" d="M2370.51,2105.2
					c33.433,125.007,64.864,259.145,92.438,401.864c33.293,172.322,56.761,335.414,73.019,487.281
					c18.487-0.953,36.974-1.913,55.461-2.867c61.161-149.612,57.791-247.454,42.224-310.084
					c-5.998-24.134-20.809-71.213-29.056-142.685c-5.748-49.822-5.608-88.1-5.289-134.126c0.697-100.914,9.539-123.64,4.918-200.417
					c-4.334-72.054-6.957-108.478-29.195-128.08C2516.44,2024.446,2380.791,2099.39,2370.51,2105.2z"/>
				
					<linearGradient id="SVGID_00000054240504226125199660000003283821902932348061_" gradientUnits="userSpaceOnUse" x1="1733.9265" y1="1770.8591" x2="1902.7012" y2="1942.6475">
					<stop  offset="0" style="stop-color:#FFC444"/>
					<stop  offset="0.9964" style="stop-color:#F36F56"/>
				</linearGradient>
				<path style="fill:url(#SVGID_00000054240504226125199660000003283821902932348061_);" d="M1833.767,1814.786
					c0,0-40.615-3.482-46.491-10.066c-5.876-6.584-14.801-17.13-15.682-23.166c-0.88-6.037-8.727,2.981-1.614,16.072
					c7.114,13.092-13.069,10.319-16.218,10.002c-7.242-0.727-34.868-1.537-34.072,0.173c0.798,1.712-3.28,9.269,16.34,18.159
					c17.175,7.782,37.622,2.717,48.787,3.252c11.165,0.535,11.165,0.535,11.165,0.535l29.612,2.258L1833.767,1814.786z"/>
				
					<linearGradient id="SVGID_00000009550745203047251890000005784959456308983456_" gradientUnits="userSpaceOnUse" x1="2542.2646" y1="1265.3525" x2="1734.5685" y2="2091.1301">
					<stop  offset="0.0036" style="stop-color:#6165D7"/>
					<stop  offset="1" style="stop-color:#AA80F9"/>
				</linearGradient>
				<path style="fill:url(#SVGID_00000009550745203047251890000005784959456308983456_);" d="M1809.959,1795.81
					c-1.789,13.539-3.577,27.077-5.366,40.615c26.9,22.439,86.374,65.451,169.116,71.901
					c145.867,11.379,290.522-96.576,317.453-217.998c13.336-60.135,2.442-144.505-34.93-158.072
					c-10.374-3.768-25.958-3.232-58.088,18.353c-85.745,57.598-93.038,133.243-140.407,184.412
					C2023.646,1771.847,1956.616,1809.154,1809.959,1795.81z"/>
				
					<linearGradient id="SVGID_00000096031816224928358230000016365850013623031988_" gradientUnits="userSpaceOnUse" x1="2918.8" y1="2558.5125" x2="2310.0156" y2="1684.5148">
					<stop  offset="0.0036" style="stop-color:#6165D7"/>
					<stop  offset="1" style="stop-color:#AA80F9"/>
				</linearGradient>
				<path style="fill:url(#SVGID_00000096031816224928358230000016365850013623031988_);" d="M2257.005,2170.527
					c-20.022-27.907-0.092-57.968,0.509-113.93c0.68-63.426-24.416-71.966-56.767-174.394
					c-21.514-68.122-42.167-133.519-30.137-212.972c5.765-38.079,15.543-102.663,65.554-137.487
					c25.809-17.971,62.902-19.353,136.036-21.378c90.438-2.508,135.656-3.762,170.655,11.231
					c5.123,2.196,111.742,49.58,126.033,139.6c14.546,91.62-84.865,112.057-88.404,236.075
					c-1.589,55.673,15.929,139.7,27.29,194.201c10.909,52.33,16.585,65.498,7.435,82.339
					c-22.053,40.592-99.914,35.764-255.637,26.117C2298.49,2196.143,2271.946,2191.353,2257.005,2170.527z"/>
				
					<linearGradient id="SVGID_00000159452346040053380710000015972530070637917871_" gradientUnits="userSpaceOnUse" x1="2918.7402" y1="2558.5535" x2="2309.9541" y2="1684.5532">
					<stop  offset="0" style="stop-color:#AA80F9"/>
					<stop  offset="0.9964" style="stop-color:#6165D7"/>
				</linearGradient>
				<path style="opacity:0.3;fill:url(#SVGID_00000159452346040053380710000015972530070637917871_);" d="M2469.98,1886.223
					c8.43,23.441,33.278,39.462,54.247,96.442c4.527,12.303,36.771,99.909,6.029,124.573c-17.758,14.243-36.549-8.542-82.376-8.042
					c-79.412,0.865-111.714,70.253-164.754,56.262c-9.202-2.432-21.557-8.189-34.589-22.651c-1.237,14.072,0.133,26.098,8.469,37.72
					c14.941,20.825,41.485,25.616,102.568,29.402c155.723,9.647,233.584,14.475,255.637-26.117
					c9.15-16.841,3.474-30.009-7.435-82.339c-11.36-54.5-28.878-138.528-27.29-194.201c3.539-124.018,102.95-144.456,88.404-236.075
					c-3.888-24.493-14.713-45.713-28.367-63.843C2517.284,1659.1,2443.483,1812.563,2469.98,1886.223z"/>
				
					<linearGradient id="SVGID_00000163069497653955772590000017436334316359956882_" gradientUnits="userSpaceOnUse" x1="2548.0237" y1="2073.7524" x2="2646.2209" y2="2073.7524">
					<stop  offset="0" style="stop-color:#FFC444"/>
					<stop  offset="0.9964" style="stop-color:#F36F56"/>
				</linearGradient>
				<path style="fill:url(#SVGID_00000163069497653955772590000017436334316359956882_);" d="M2645.385,2054.684l-24.179,18.313
					c-4.999-4.917-16.446-14.728-33.278-17.042c-18.963-2.602-39.883,4.986-39.904,10.973c-0.017,4.797,13.393,8.558,15.466,9.141
					c16.74,4.697,28.404-1.253,35.501,4.756c2.51,2.125,5.752,6.192,12.733,9.641c1.833,0.907,3.741,1.683,4.738,1.983
					c11.189,3.35,28.291-17.034,29.76-18.812L2645.385,2054.684z"/>
				
					<linearGradient id="SVGID_00000158005276782738779110000005445065105884704687_" gradientUnits="userSpaceOnUse" x1="3089.5264" y1="2439.592" x2="2480.7395" y2="1565.5911">
					<stop  offset="0.0036" style="stop-color:#6165D7"/>
					<stop  offset="1" style="stop-color:#AA80F9"/>
				</linearGradient>
				<path style="fill:url(#SVGID_00000158005276782738779110000005445065105884704687_);" d="M2543.315,1726.492
					c-21.972-42.675-40.161-109.249-19.089-211.972c197.911,60.223,310.118,231.597,283.297,376.724
					c-22.109,119.64-132.119,185.866-156.717,199.916c-7.032-13.061-14.065-26.117-21.097-39.178
					c26.978-35.359,56.448-86.806,47.267-142.083C2664.251,1833.265,2587.8,1812.887,2543.315,1726.492z"/>
				
					<linearGradient id="SVGID_00000043435966669194298780000000508998998747271066_" gradientUnits="userSpaceOnUse" x1="-123.6659" y1="1651.6794" x2="-123.6659" y2="1477.6317" gradientTransform="matrix(0.827 0.5622 -0.5622 0.827 3357.9539 289.0357)">
					<stop  offset="0" style="stop-color:#FFC444"/>
					<stop  offset="0.9964" style="stop-color:#F36F56"/>
				</linearGradient>
				<path style="fill:url(#SVGID_00000043435966669194298780000000508998998747271066_);" d="M2369.637,1419.16
					c0,0,4.205,33.44,16.637,57.738c11.235,21.96,61.897,32.272,72.34,36.537c10.445,4.266-17.211,21.398-45.944,26.631
					c-28.731,5.233-111.977,5.285-127.768-4.501c-15.791-9.785,11.168-11.114,31.235-20.362c20.066-9.245,28.78-50.637,23.66-68.696
					C2334.679,1428.447,2369.637,1419.16,2369.637,1419.16z"/>
				
					<linearGradient id="SVGID_00000105386839499859669040000018260492907626565557_" gradientUnits="userSpaceOnUse" x1="2405.7737" y1="1529.1578" x2="2332.9788" y2="1344.2715">
					<stop  offset="0" style="stop-color:#444B8C"/>
					<stop  offset="0.9964" style="stop-color:#3E4177"/>
				</linearGradient>
				<path style="fill:url(#SVGID_00000105386839499859669040000018260492907626565557_);" d="M2322.85,1410.663
					c-16.213-13.562-18.449-15.119-20.495-20.092c-8.21-19.96,5.431-49.289,25.719-57.866c1.055-0.445,14.673-6.04,20.494-0.403
					c4.944,4.785-1.152,12.432,2.813,22.102c3.713,9.053,11.823,9.104,27.727,20.092c13.101,9.049,21.243,14.675,23.709,23.308
					c5.085,17.8-14.713,45.772-34.157,46.612C2361.667,1444.72,2359.486,1441.311,2322.85,1410.663z"/>
				<g>
					
						<linearGradient id="SVGID_00000087384475514898772580000002874415881646964129_" gradientUnits="userSpaceOnUse" x1="-246.6931" y1="1601.5203" x2="-165.3194" y2="1443.2937" gradientTransform="matrix(0.827 0.5622 -0.5622 0.827 3357.9539 289.0357)">
						<stop  offset="0" style="stop-color:#FFC444"/>
						<stop  offset="0.9964" style="stop-color:#F36F56"/>
					</linearGradient>
					<path style="fill:url(#SVGID_00000087384475514898772580000002874415881646964129_);" d="M2366.987,1447.364
						c0,0-14.526,19.37-39.342,15.339c-22.219-3.607-20.667-54.064-5.361-63.332c5.106-3.09,14.79-3.645,22.34-0.725
						c4.46,1.726,5.826,3.78,13.168,6.458c6.771,2.468,8.809,1.888,10.733,3.855c2.41,2.458,3.81,8.053-1.98,22.292
						c4.682-3.91,9.962-5.073,13.424-3.013c0.552,0.33,1.989,1.523,2.699,3.188
						C2385.242,1437.457,2379.308,1444.267,2366.987,1447.364z"/>
				</g>
			</g>
			<g>
				<path style="fill:#C47EB7;" d="M1849.433,2970.97c-0.846,0-1.582-0.601-1.737-1.446l-130.443-701.305
					c-0.18-0.961,0.453-1.884,1.413-2.062c0.964-0.186,1.886,0.454,2.062,1.415l126.938,682.45v-728.508
					c0-0.977,0.791-1.768,1.768-1.768s1.768,0.792,1.768,1.768v747.687c0,0.914-0.698,1.677-1.606,1.76
					C1849.54,2970.968,1849.485,2970.97,1849.433,2970.97z"/>
				<path style="fill:#C47EB7;" d="M1168.562,2991.951c-0.048,0-0.097-0.002-0.145-0.006c-0.919-0.075-1.623-0.842-1.623-1.762
					v-686.715c0-0.977,0.791-1.769,1.768-1.769c0.978,0,1.768,0.792,1.768,1.769v665.267l110.915-668.042
					c0.159-0.965,1.057-1.613,2.034-1.455c0.964,0.16,1.613,1.071,1.454,2.034l-114.427,689.201
					C1170.164,2991.331,1169.418,2991.951,1168.562,2991.951z"/>
				<path style="fill:#C47EB7;" d="M2845.27,3219.204c-0.829,0-1.558-0.579-1.731-1.403l-159.64-756.055
					c-0.2-0.956,0.411-1.894,1.365-2.096c0.932-0.198,1.893,0.406,2.096,1.365l156.141,739.485v-739.932
					c0-0.977,0.791-1.768,1.769-1.768c0.977,0,1.768,0.792,1.768,1.768v756.867c0,0.906-0.684,1.665-1.585,1.759
					C2845.391,3219.2,2845.329,3219.204,2845.27,3219.204z"/>
				<path style="fill:#C47EB7;" d="M2051.135,3351.396c-0.059,0-0.117-0.003-0.176-0.009c-0.905-0.092-1.592-0.851-1.592-1.76
					v-759.835c0-0.977,0.791-1.768,1.769-1.768s1.768,0.792,1.768,1.768v742.259l171.511-843.705
					c0.197-0.958,1.143-1.573,2.086-1.381c0.957,0.194,1.575,1.128,1.382,2.085l-175.014,860.929
					C2052.7,3350.811,2051.968,3351.396,2051.135,3351.396z"/>
				<g>
					<path style="fill:#B7C0CE;" d="M2852.366,2451.318v13.045l-803.053,130.995l-887.997-288.992c0-4.347,0-8.697,0-13.043
						C1300.385,2252.319,2852.366,2451.318,2852.366,2451.318z"/>
					<polygon style="fill:#FFFFFF;" points="1898.8,2225.763 2852.366,2451.318 2049.313,2582.314 1161.316,2293.323 					"/>
				</g>
			</g>
			<g>
				
					<linearGradient id="SVGID_00000163066894182009660980000006443010423933542797_" gradientUnits="userSpaceOnUse" x1="1321.1898" y1="3328.2417" x2="1246.8507" y2="3083.1228" gradientTransform="matrix(0.9999 0.0138 -0.0138 0.9999 63.3784 -14.86)">
					<stop  offset="0" style="stop-color:#444B8C"/>
					<stop  offset="0.9964" style="stop-color:#26264F"/>
				</linearGradient>
				<path style="fill:url(#SVGID_00000163066894182009660980000006443010423933542797_);" d="M1267.708,3211.497
					c-7.61,15.518-5.474,22.188-3.579,25.121c5.553,8.607,18.921,0.48,53.818,4.612c4.093,0.487,11.904,1.542,21.652-0.755
					c8.35-1.968,18.196-6.412,17.776-8.648c-0.154-0.814-1.637-1.14-2.2-1.261c-9.684-2.065-70.309-20.67-70.309-20.67
					L1267.708,3211.497z"/>
				
					<linearGradient id="SVGID_00000100381961000146379640000008865438507296133271_" gradientUnits="userSpaceOnUse" x1="1257.1055" y1="3280.5117" x2="1257.1055" y2="2886.7065" gradientTransform="matrix(0.9999 0.0138 -0.0138 0.9999 63.3784 -14.86)">
					<stop  offset="0" style="stop-color:#FFC444"/>
					<stop  offset="0.9964" style="stop-color:#F36F56"/>
				</linearGradient>
				<path style="fill:url(#SVGID_00000100381961000146379640000008865438507296133271_);" d="M1263.055,3177.382l5.413,34.693
					c0,0,14.901,10.532,18.817-2.254c2.818-9.198,2.738-33.989,2.738-33.989L1263.055,3177.382z"/>
				
					<linearGradient id="SVGID_00000145754031962440573940000018433802662901890475_" gradientUnits="userSpaceOnUse" x1="1402.103" y1="3280.5151" x2="1402.103" y2="2886.7078" gradientTransform="matrix(0.9999 0.0138 -0.0138 0.9999 63.3784 -14.86)">
					<stop  offset="0" style="stop-color:#FFC444"/>
					<stop  offset="0.9964" style="stop-color:#F36F56"/>
				</linearGradient>
				<polygon style="fill:url(#SVGID_00000145754031962440573940000018433802662901890475_);" points="1439.006,3194.557 
					1424.377,3234.5 1403.118,3231.113 1408.046,3194.129 				"/>
				
					<linearGradient id="SVGID_00000014612089765687463710000002260086338561032638_" gradientUnits="userSpaceOnUse" x1="1429.4836" y1="3295.4038" x2="1355.1422" y2="3050.2773" gradientTransform="matrix(0.9999 0.0138 -0.0138 0.9999 63.3784 -14.86)">
					<stop  offset="0" style="stop-color:#444B8C"/>
					<stop  offset="0.9964" style="stop-color:#26264F"/>
				</linearGradient>
				<path style="fill:url(#SVGID_00000014612089765687463710000002260086338561032638_);" d="M1417.756,3256.5
					c-10.29-12.21-19.477-11.102-21.331-19.493c-1.457-6.593,2.581-14.679,8.672-17.751c8.562-4.315,18.932,2.426,21.274,3.947
					c15.916,10.347,11.581,26.527,26.587,33.542c3.021,1.413,7.806,2.91,12.852,7.638c2.141,2.007,7.448,6.979,6.204,10.405
					c-1.437,3.961-10.898,3.824-19.894,3.693c-10.794-0.155-16.192-0.23-21.382-3.471
					C1423.543,3270.519,1425.699,3265.924,1417.756,3256.5z"/>
				
					<linearGradient id="SVGID_00000030460926040398673330000009347648416287612308_" gradientUnits="userSpaceOnUse" x1="1223.0811" y1="2430.7581" x2="1186.9153" y2="3244.4885" gradientTransform="matrix(0.9999 0.0138 -0.0138 0.9999 63.3784 -14.86)">
					<stop  offset="0" style="stop-color:#311944"/>
					<stop  offset="1" style="stop-color:#893976"/>
				</linearGradient>
				<path style="fill:url(#SVGID_00000030460926040398673330000009347648416287612308_);" d="M1149.305,2347.574
					c3.934,80.692,15.486,149.575,28.629,205.729c14.138,60.407,21.841,70.732,26.745,112.609
					c10.668,91.123-18.478,104.826-21.668,208.15c-3.523,114.091,28.724,204.017,41.377,238.312
					c11.063,29.982,22.488,54.141,31.05,70.907c10.644,8.886,26.545,5.045,43.316,1.259c3.99-103.501,9.638-200.945,13.627-304.445
					c16.677-155.931,33.353-311.856,50.029-467.785C1291.375,2390.728,1220.341,2369.154,1149.305,2347.574z"/>
				
					<linearGradient id="SVGID_00000092429127395130976960000000497211853260396678_" gradientUnits="userSpaceOnUse" x1="1223.0811" y1="2430.7578" x2="1186.9153" y2="3244.4875" gradientTransform="matrix(0.9999 0.0138 -0.0138 0.9999 63.3784 -14.86)">
					<stop  offset="0" style="stop-color:#311944"/>
					<stop  offset="1" style="stop-color:#893976"/>
				</linearGradient>
				<path style="opacity:0.3;fill:url(#SVGID_00000092429127395130976960000000497211853260396678_);" d="M1298.754,3184.539
					c3.99-103.501,9.638-200.945,13.627-304.445c16.677-155.931,33.353-311.856,50.029-467.785
					c-71.035-21.58-142.07-43.155-213.105-64.735c0.261,5.344,0.64,10.493,0.964,15.737
					c100.811,83.822,121.64,151.49,121.669,197.95c0.036,56.35-30.165,84.93-22.395,166.466
					c5.555,58.299,23.329,68.209,24.452,120.9c1.445,67.849-26.857,106.622-40.199,146.132
					c-12.893,38.188-16.621,91.965,11.496,167.735c3.646,7.809,7.084,14.792,10.146,20.786
					C1266.083,3192.163,1281.984,3188.327,1298.754,3184.539z"/>
				
					<linearGradient id="SVGID_00000071549464490899714230000008576628270124272526_" gradientUnits="userSpaceOnUse" x1="1774.3884" y1="2776.9343" x2="1111.3676" y2="2746.7966" gradientTransform="matrix(0.9999 0.0138 -0.0138 0.9999 63.3784 -14.86)">
					<stop  offset="0" style="stop-color:#311944"/>
					<stop  offset="1" style="stop-color:#893976"/>
				</linearGradient>
				<path style="fill:url(#SVGID_00000071549464490899714230000008576628270124272526_);" d="M1275.864,2422.667
					c53.743,86.455,84.022,154.761,100.574,196.987c10.097,25.76,19.321,52.62,22.096,88.043
					c3.398,43.398-4.476,79.287-11.474,102.309c-10.277,29.521-19.398,63.893-24.751,102.614
					c-17.362,125.575,14.194,229.672,38.415,289.406c12.635,4.372,25.273,8.749,37.908,13.122
					c26.689-80.047,59.054-193.48,81.048-332.983c12.013-76.192,21.157-135.942,19.634-211.556
					c-1.606-79.754-15.654-205.656-84.14-354.975C1395.404,2351.311,1335.633,2386.99,1275.864,2422.667z"/>
				
					<linearGradient id="SVGID_00000027603249419821671120000001372198776282563002_" gradientUnits="userSpaceOnUse" x1="793.0798" y1="2950.6443" x2="1263.2328" y2="1946.0443" gradientTransform="matrix(0.9999 0.0138 -0.0138 0.9999 63.3784 -14.86)">
					<stop  offset="0" style="stop-color:#FF9085"/>
					<stop  offset="1" style="stop-color:#FB6FBB"/>
				</linearGradient>
				<path style="fill:url(#SVGID_00000027603249419821671120000001372198776282563002_);" d="M1290.033,1731.706
					c80.017,11.983,141.018,24.932,169.014,66.105c29.568,43.49-15.227,77.665-25.525,174.694
					c-15.768,148.551,70.595,202.066,49.287,351.759c-7.179,50.437-23.436,89.678-34.704,113.028
					c-25.311,21.566-65.644,51.117-120.78,71.744c-80.234,30.013-120.464,14.429-229.096,22.977
					c-177.685,13.981-203.215,66.15-284.27,36.146c-81.92-30.326-142.572-115.714-126.138-153.111
					c9.843-22.394,42.689-9.247,88.785-37.472c59.408-36.375,48.276-84.046,96.206-126.172
					c68.845-60.508,137.567-2.367,196.433-54.96c59.545-53.205,64.078-179.575,36.684-254.159
					c-17.894-48.716-19.352-102.079-32.93-152.168c-1.13-4.162-2.09-10.817,0.348-18.44c9.322-29.156,62.162-35.847,102.112-40.53
					C1236.389,1724.003,1283.453,1730.718,1290.033,1731.706z"/>
				
					<linearGradient id="SVGID_00000064350004557143189380000015201897675482243214_" gradientUnits="userSpaceOnUse" x1="1258.5585" y1="1803.1595" x2="1625.8105" y2="2558.3547" gradientTransform="matrix(-0.9823 -0.1875 -0.1875 0.9823 3111.8684 295.6934)">
					<stop  offset="0" style="stop-color:#FF9085"/>
					<stop  offset="1" style="stop-color:#FB6FBB"/>
				</linearGradient>
				<path style="opacity:0.3;fill:url(#SVGID_00000064350004557143189380000015201897675482243214_);" d="M822.089,2511.776
					c24.279-16.941,9.94-63.187,45.891-88.671c33.367-23.652,60.419,5.765,109.991-10.603
					c63.581-20.996,58.913-82.542,119.826-103.525c43.802-15.088,57.712,12.78,121.355,12.631
					c63.534-0.146,146.226-28.142,197.501-96.595c21.787-29.086,33.649-59.872,39.856-88.231
					c18.16,54.496,37.737,107.137,26.301,187.482c-7.179,50.437-23.436,89.678-34.704,113.028
					c-25.311,21.566-65.644,51.117-120.78,71.741c-80.233,30.014-120.464,14.431-229.096,22.979
					c-177.685,13.981-203.215,66.15-284.27,36.146c-52.355-19.381-95.907-61.23-116.317-98.689
					C769.052,2519.105,804.468,2524.073,822.089,2511.776z"/>
				
					<linearGradient id="SVGID_00000015345688475319379870000017679609657853919400_" gradientUnits="userSpaceOnUse" x1="1311.1914" y1="1647.3805" x2="1226.3781" y2="1784.5785" gradientTransform="matrix(0.9999 0.0138 -0.0138 0.9999 63.3784 -14.86)">
					<stop  offset="0" style="stop-color:#FFC444"/>
					<stop  offset="0.9964" style="stop-color:#F36F56"/>
				</linearGradient>
				<path style="fill:url(#SVGID_00000015345688475319379870000017679609657853919400_);" d="M1333.123,1592.743
					c0,0,22.854,40.771,24.86,69.681c2.008,28.909-30.698,27.506-30.698,27.506l1.618,18.229
					c1.38,15.562,11.787,28.855,26.561,33.931l12.996,4.465c0,0-83.728,19.813-130.358-11.653l13.209-1.58
					c18.703-2.236,33.24-17.346,34.75-36.123l0.63-7.831C1286.692,1689.369,1270.166,1599.475,1333.123,1592.743z"/>
				<g>
					
						<linearGradient id="SVGID_00000178915737036765183280000010699665510037851826_" gradientUnits="userSpaceOnUse" x1="1627.0592" y1="1859.8066" x2="1456.1064" y2="2136.3477" gradientTransform="matrix(0.9999 0.0138 -0.0138 0.9999 63.3784 -14.86)">
						<stop  offset="0" style="stop-color:#444B8C"/>
						<stop  offset="0.9964" style="stop-color:#26264F"/>
					</linearGradient>
					<path style="fill:url(#SVGID_00000178915737036765183280000010699665510037851826_);" d="M1466.877,2049.895l104.017-232.152
						c1.285-2.867,4.291-4.556,7.407-4.164l181.878,22.933c4.856,0.612,7.671,5.819,5.521,10.215l-122.639,250.846
						c-1.476,3.021-4.862,4.601-8.127,3.794l-161.93-40.044L1466.877,2049.895z"/>
					
						<linearGradient id="SVGID_00000135666628349600585160000007161391960477560500_" gradientUnits="userSpaceOnUse" x1="1647.7383" y1="1874.2391" x2="1500.0627" y2="2151.5071">
						<stop  offset="0" style="stop-color:#FFC444"/>
						<stop  offset="0.9964" style="stop-color:#F36F56"/>
					</linearGradient>
					<path style="fill:url(#SVGID_00000135666628349600585160000007161391960477560500_);" d="M1495.498,2021.788l84.221-187.972
						c1.04-2.322,3.474-3.69,5.997-3.372l147.265,18.568c3.932,0.495,6.21,4.713,4.47,8.273l-99.3,203.107
						c-1.196,2.447-3.937,3.725-6.579,3.071l-131.116-32.422L1495.498,2021.788z"/>
					
						<linearGradient id="SVGID_00000109749968979170935660000009759982034551411341_" gradientUnits="userSpaceOnUse" x1="1609.6038" y1="1842.067" x2="1650.2886" y2="1757.6836" gradientTransform="matrix(0.9999 0.0138 -0.0138 0.9999 63.3784 -14.86)">
						<stop  offset="0" style="stop-color:#AA80F9"/>
						<stop  offset="0.9964" style="stop-color:#6165D7"/>
					</linearGradient>
					<path style="fill:url(#SVGID_00000109749968979170935660000009759982034551411341_);" d="M1610.254,1832.68l6.673-15.068
						c0.928-2.094,3.11-3.34,5.385-3.072l75.682,8.901c3.514,0.414,5.609,4.127,4.146,7.348l-7.458,16.405
						c-0.955,2.101-3.176,3.327-5.462,3.015l-74.9-10.24C1610.878,1839.499,1608.846,1835.859,1610.254,1832.68z"/>
					
						<linearGradient id="SVGID_00000108270423455394433120000012952024237776040095_" gradientUnits="userSpaceOnUse" x1="1663.6099" y1="1713.8518" x2="1626.1871" y2="2066.1721">
						<stop  offset="0" style="stop-color:#FFC444"/>
						<stop  offset="0.9964" style="stop-color:#F36F56"/>
					</linearGradient>
					<path style="fill:url(#SVGID_00000108270423455394433120000012952024237776040095_);" d="M1713.479,1883.505
						c-0.12-0.002-0.23-0.015-0.347-0.029l-133.39-17.114c-1.651-0.21-2.82-1.722-2.609-3.368c0.218-1.658,1.782-2.801,3.374-2.602
						l133.391,17.114c1.651,0.211,2.819,1.723,2.609,3.368C1716.308,1882.414,1714.984,1883.526,1713.479,1883.505z"/>
					
						<linearGradient id="SVGID_00000023268319103974574600000005089147843554374067_" gradientUnits="userSpaceOnUse" x1="1658.5203" y1="1713.3118" x2="1621.0977" y2="2065.6313">
						<stop  offset="0" style="stop-color:#FFC444"/>
						<stop  offset="0.9964" style="stop-color:#F36F56"/>
					</linearGradient>
					<path style="fill:url(#SVGID_00000023268319103974574600000005089147843554374067_);" d="M1706.634,1896.973
						c-0.124-0.002-0.253-0.015-0.377-0.029l-132.719-18.412c-1.651-0.223-2.8-1.747-2.573-3.403
						c0.223-1.645,1.729-2.79,3.397-2.567l132.718,18.411c1.651,0.224,2.802,1.746,2.573,3.404
						C1709.446,1895.894,1708.129,1896.993,1706.634,1896.973z"/>
					
						<linearGradient id="SVGID_00000059307022268015839050000001397089226974027429_" gradientUnits="userSpaceOnUse" x1="1624.8815" y1="1709.7383" x2="1587.4587" y2="2062.0583">
						<stop  offset="0" style="stop-color:#FFC444"/>
						<stop  offset="0.9964" style="stop-color:#F36F56"/>
					</linearGradient>
					<path style="fill:url(#SVGID_00000059307022268015839050000001397089226974027429_);" d="M1639.854,1918.149
						c-0.153-0.002-0.305-0.016-0.458-0.041l-72.371-12.056c-1.646-0.271-2.755-1.828-2.479-3.472
						c0.27-1.633,1.852-2.753,3.466-2.473l72.373,12.057c1.644,0.27,2.753,1.828,2.477,3.473
						C1642.618,1917.116,1641.314,1918.169,1639.854,1918.149z"/>
				</g>
				
					<linearGradient id="SVGID_00000135691326705815873580000001168657491145706674_" gradientUnits="userSpaceOnUse" x1="1663.2258" y1="1969.0975" x2="1622.2057" y2="2035.4535" gradientTransform="matrix(0.9999 0.0138 -0.0138 0.9999 63.3784 -14.86)">
					<stop  offset="0" style="stop-color:#FFC444"/>
					<stop  offset="0.9964" style="stop-color:#F36F56"/>
				</linearGradient>
				<path style="fill:url(#SVGID_00000135691326705815873580000001168657491145706674_);" d="M1673.074,2036.182
					c0,0,29.638-20.158,33.095-34.369c3.457-14.211,2.589-40.949,2.589-40.949l-17.276,37.667c0,0-8.348-2.393-11.944-14.805
					c-3.596-12.414-9.674-1.043-7.22,8.334C1674.773,2001.437,1673.074,2036.182,1673.074,2036.182z"/>
				
					<linearGradient id="SVGID_00000108281033149137716630000012989528221874380431_" gradientUnits="userSpaceOnUse" x1="1004.0889" y1="3049.4263" x2="1474.2498" y2="2044.8091" gradientTransform="matrix(0.9999 0.0138 -0.0138 0.9999 63.3784 -14.86)">
					<stop  offset="0" style="stop-color:#FF9085"/>
					<stop  offset="1" style="stop-color:#FB6FBB"/>
				</linearGradient>
				<path style="fill:url(#SVGID_00000108281033149137716630000012989528221874380431_);" d="M1444.869,1783.8
					c15.654,9.536,39.258,26.275,60.122,53.283c59.356,76.837,36.216,158.698,85.317,187.651
					c14.041,8.282,38.689,15.005,83.189-0.734l17.057,9.073c0,0,20.832,105.963-107.837,109.924
					c-128.67,3.967-192.778-155.993-192.778-155.993L1444.869,1783.8z"/>
				
					<linearGradient id="SVGID_00000068657580642938231810000004927432189806062983_" gradientUnits="userSpaceOnUse" x1="840.1558" y1="2222.0508" x2="1183.0397" y2="1489.3931" gradientTransform="matrix(0.9999 0.0138 -0.0138 0.9999 63.3784 -14.86)">
					<stop  offset="0" style="stop-color:#444B8C"/>
					<stop  offset="0.9964" style="stop-color:#26264F"/>
				</linearGradient>
				<path style="fill:url(#SVGID_00000068657580642938231810000004927432189806062983_);" d="M1320.859,1634.037
					c-4.355-0.267-8.065-5.704-11.006-4.002c-3.088,1.782-2.569,9.813,0.268,15.397c2.326,4.576,6.016,7.112,8.062,8.289
					c-3.257,4.717-7.379,12.031-8.955,21.522c-3.492,20.992,7.983,37.568,12.814,47.308c21.784,43.91-9.122,114.732-43.934,150.909
					c-28.291,29.407-42.027,18.12-58.781,42.002c-32.612,46.48,14.833,95.783-1.219,157.745
					c-24.409,94.216-171.688,125.249-177.795,126.459c-2.406,0.479-4.022,0.781-6.528,1.234
					c-66.111,11.961-166.313,30.091-238.289-22.838c-53.851-39.598-79.669-109.979-76.995-172.513
					c0.701-16.449,4.341-78.913,54.058-130.895c7.892-8.25,54.623-56.996,119.141-58.958c34.172-1.041,41.323,10.855,67.302,2.848
					c35.567-10.963,56.912-43.971,70.155-64.444c24.356-37.664,13.965-45.371,31.669-64.018
					c34.693-36.531,76.896-9.333,114.092-41.715c36.667-31.919,13.238-73.65,48.698-101.358
					c36.58-28.575,107.9-20.402,123.769,12.354C1361.022,1587.509,1334.211,1634.851,1320.859,1634.037z"/>
			</g>
			<g>
				<ellipse style="fill:#B7C0CE;" cx="978.678" cy="3277.824" rx="221.99" ry="90.6"/>
				
					<linearGradient id="SVGID_00000085937906105384982840000004978949852335251621_" gradientUnits="userSpaceOnUse" x1="756.6881" y1="3247.7029" x2="1200.6685" y2="3247.7029">
					<stop  offset="0" style="stop-color:#D0D1D3"/>
					<stop  offset="0.9964" style="stop-color:#EBEFF2"/>
				</linearGradient>
				<path style="fill:url(#SVGID_00000085937906105384982840000004978949852335251621_);" d="M756.688,3267.199
					c0,47.234,99.388,85.524,221.99,85.524c122.603,0,221.991-38.291,221.991-85.524c0-47.232-99.388-124.518-221.991-124.518
					C856.076,3142.682,756.688,3219.967,756.688,3267.199z"/>
				<path style="fill:#B7C0CE;" d="M756.688,3267.199c0-47.233,99.388-124.518,221.99-124.518c56.609,0,108.24,16.493,147.452,38.88
					c2.745,5.75,4.024,11.467,3.503,16.896c-2.546,26.575-45.888,42.913-70.768,48.301c-62.651,13.57-93.246-23.894-144.904-22.466
					c-31.937,0.883-76.195,16.927-128.687,84.875C767.105,3296.768,756.688,3282.456,756.688,3267.199z"/>
				<path style="fill:#FFFFFF;" d="M966.519,3185.583c8.87,2.208,17.146,2.12,24.931,0.142c7.061-1.793,11.91-8.327,11.91-15.614
					l-0.001-250.314h-49.362v250.018C953.997,3177.327,959.231,3183.77,966.519,3185.583z"/>
				
					<linearGradient id="SVGID_00000083770990241374277230000010501094442128862093_" gradientUnits="userSpaceOnUse" x1="-1108.3243" y1="3053.511" x2="-1058.9612" y2="3053.511" gradientTransform="matrix(-1 0 0 1 -104.9645 0)">
					<stop  offset="0" style="stop-color:#D0D1D3"/>
					<stop  offset="0.9964" style="stop-color:#EBEFF2"/>
				</linearGradient>
				<path style="fill:url(#SVGID_00000083770990241374277230000010501094442128862093_);" d="M966.519,3185.583
					c8.87,2.208,17.146,2.12,24.931,0.142c7.061-1.793,11.91-8.327,11.91-15.614l-0.001-250.314h-49.362v250.018
					C953.997,3177.327,959.231,3183.77,966.519,3185.583z"/>
				<g>
					
						<linearGradient id="SVGID_00000111182107037698116530000015055167424762653375_" gradientUnits="userSpaceOnUse" x1="-838.5949" y1="3001.0198" x2="-929.0977" y2="2883.0918" gradientTransform="matrix(-1 0 0 1 -104.9645 0)">
						<stop  offset="0" style="stop-color:#311944"/>
						<stop  offset="1" style="stop-color:#893976"/>
					</linearGradient>
					<path style="fill:url(#SVGID_00000111182107037698116530000015055167424762653375_);" d="M1239.504,2814.451l-75.41-47.671
						c-3.137-17.808-38.683-204.101-182.993-262.601c-58.685-23.789-121.841-20.967-156.499-19.417
						c-69.188,3.09-118.54,5.294-142.275,38.298c-30.48,42.378,20.641,80.809,10.056,202.03
						c-4.316,49.433-15.294,71.389-1.621,104.136c16.379,39.229,54.363,60.973,83.896,73.213
						c35.303,20.501,96.772,49.714,177.958,56.829c136.752,11.985,238.845-46.677,273.953-69.122
						c15.612-4.922,27.342-17.905,30.662-33.933C1260.596,2839.958,1253.534,2823.319,1239.504,2814.451z"/>
				</g>
			</g>
			<g>
				
					<linearGradient id="SVGID_00000173161183256835365020000003080893780626738057_" gradientUnits="userSpaceOnUse" x1="1876.7448" y1="2193.9204" x2="1831.0107" y2="2326.6604">
					<stop  offset="0" style="stop-color:#444B8C"/>
					<stop  offset="0.9964" style="stop-color:#26264F"/>
				</linearGradient>
				<path style="fill:url(#SVGID_00000173161183256835365020000003080893780626738057_);" d="M1500.858,2340.759l646.889-4.813
					v14.243c0,3.866-2.821,7.153-6.642,7.739l-182.921,28.047c-2.171,0.333-4.373,0.421-9.625,3.84l-443.733-31.978
					c-0.9-3.863-3.967-7.16-3.967-11.132V2340.759z"/>
				<g>
					
						<linearGradient id="SVGID_00000148640260624779936440000008285749818640416136_" gradientUnits="userSpaceOnUse" x1="1724.8016" y1="2200.0103" x2="2154.2114" y2="2200.0103">
						<stop  offset="0" style="stop-color:#311944"/>
						<stop  offset="1" style="stop-color:#893976"/>
					</linearGradient>
					<path style="fill:url(#SVGID_00000148640260624779936440000008285749818640416136_);" d="M1735.611,2317.217l405.446,26.056
						c7.255,0.466,13.154-4.488,13.154-11.067v-263.576c0-6.579-5.899-11.912-13.154-11.912h-405.446
						c-5.977,0-10.81,4.821-10.81,10.768v238.269C1724.802,2311.701,1729.634,2316.833,1735.611,2317.217z"/>
					
						<linearGradient id="SVGID_00000008847892118819319730000016512492607266527116_" gradientUnits="userSpaceOnUse" x1="1718.3368" y1="2200.0103" x2="2147.7466" y2="2200.0103">
						<stop  offset="0" style="stop-color:#444B8C"/>
						<stop  offset="0.9964" style="stop-color:#26264F"/>
					</linearGradient>
					<path style="fill:url(#SVGID_00000008847892118819319730000016512492607266527116_);" d="M2134.593,2056.717h-412.119
						c-2.285,0-4.137,1.853-4.137,4.138v251.053c0,2.538,2.072,4.747,4.604,4.91l411.652,26.454
						c7.255,0.466,13.154-4.488,13.154-11.068v-263.577C2147.747,2062.05,2141.848,2056.717,2134.593,2056.717z"/>
					<path style="fill:#F4F7FA;" d="M1741.778,2300.419l377.631,22.633c5.904,0.354,10.702-3.712,10.702-9.083v-230.761
						c0-5.371-4.798-9.743-10.702-9.765l-377.631-1.421c-4.931-0.019-8.92,3.932-8.92,8.824v210.183
						C1732.858,2295.918,1736.847,2300.123,1741.778,2300.419z"/>
					<path style="opacity:0.95;fill:#FFFFFF;" d="M1825.189,2245.056c31.416-15.304,56.119,4.088,79.958-15.045
						c14.453-11.599,7.357-20.249,25.142-37.583c19.698-19.199,32.522-12.745,52.317-30.025
						c25.03-21.848,12.511-38.847,34.072-54.533c26.156-19.03,54.364-1.417,79.263-19.667c10.739-7.872,16.631-19.315,19.708-31.485
						h24.362c4.269,0,7.736,3.133,7.736,6.997v273.407c0,3.864-3.467,6.774-7.736,6.5l-415.332-26.691
						c-2.038-0.131-3.846-1.209-5.005-2.77c30.404-1.003,49.082-10.231,61.021-19.771
						C1804.052,2275.728,1800.001,2257.325,1825.189,2245.056z"/>
					<path style="fill:#FFFFFF;" d="M1917.55,2063.927c0,2.449,2.087,4.44,4.664,4.447c2.58,0.007,4.674-1.977,4.674-4.432
						c0-2.454-2.094-4.446-4.674-4.447C1919.637,2059.493,1917.55,2061.478,1917.55,2063.927z"/>
					<polygon style="fill:#D8DEE8;" points="1835.475,2289.699 1836.176,2289.738 1836.176,2084.262 1835.475,2084.257 					"/>
					<polygon style="fill:#D8DEE8;" points="1844.43,2238.048 2119.504,2250.012 2119.504,2249.286 1844.43,2237.366 					"/>
					<polygon style="fill:#D8DEE8;" points="1824.302,2292.673 1746.355,2287.757 1746.355,2084.257 1824.302,2084.257 					"/>
					<polygon style="fill:#D8DEE8;" points="2113.441,2169.708 1844.43,2163.279 1844.43,2084.257 2113.441,2084.257 					"/>
					<polygon style="fill:#D8DEE8;" points="2113.441,2243.689 1844.43,2231.694 1844.43,2175.921 2113.441,2183.378 					"/>
				</g>
				
					<linearGradient id="SVGID_00000155867117531700809040000016338923158184963766_" gradientUnits="userSpaceOnUse" x1="1500.858" y1="2344.8662" x2="2147.7466" y2="2344.8662">
					<stop  offset="0" style="stop-color:#444B8C"/>
					<stop  offset="0.9964" style="stop-color:#26264F"/>
				</linearGradient>
				<path style="fill:url(#SVGID_00000155867117531700809040000016338923158184963766_);" d="M1712.987,2316.49l434.76,27.426
					l-189.563,29.065c-2.171,0.333-4.373,0.421-6.563,0.263l-450.762-32.484l205.213-24.084
					C1708.366,2316.406,1710.68,2316.344,1712.987,2316.49z"/>
				<polygon style="opacity:0.47;fill:#D8DEE8;" points="2084.309,2344.151 1722.357,2320.978 1610.337,2334.019 1969.17,2358.79 
									"/>
			</g>
		</g>
		<g>
			
				<linearGradient id="SVGID_00000136383613133805901290000006443176751170528897_" gradientUnits="userSpaceOnUse" x1="2228.1428" y1="2421.575" x2="2367.6274" y2="2714.6948">
				<stop  offset="0" style="stop-color:#FFC444"/>
				<stop  offset="0.9964" style="stop-color:#F36F56"/>
			</linearGradient>
			<path style="fill:url(#SVGID_00000136383613133805901290000006443176751170528897_);" d="M2004.359,2457.142l334.57-50.386
				c3.629-0.547,7.327-0.434,10.916,0.332l130.24,27.797c9.085,1.939,8.805,14.998-0.355,16.545l-314.381,53.107
				c-1.079,0.183-2.183,0.153-3.25-0.087l-158.16-35.539C1997.468,2467.458,1997.802,2458.129,2004.359,2457.142z"/>
			
				<linearGradient id="SVGID_00000090259315116826527420000002104342825164050853_" gradientUnits="userSpaceOnUse" x1="2277.3269" y1="2354.4302" x2="2228.9902" y2="2480.1055">
				<stop  offset="0" style="stop-color:#FFC444"/>
				<stop  offset="0.9964" style="stop-color:#F36F56"/>
			</linearGradient>
			<path style="fill:url(#SVGID_00000090259315116826527420000002104342825164050853_);" d="M2004.359,2447.475l334.57-50.386
				c3.629-0.547,7.327-0.434,10.916,0.332l130.24,27.796c9.085,1.939,8.805,14.999-0.355,16.545l-314.381,53.108
				c-1.079,0.182-2.183,0.153-3.25-0.087l-158.16-35.538C1997.468,2457.792,1997.802,2448.462,2004.359,2447.475z"/>
			
				<linearGradient id="SVGID_00000023246176538275072850000000197814564391525249_" gradientUnits="userSpaceOnUse" x1="2228.1428" y1="2403.8218" x2="2367.6274" y2="2696.9417">
				<stop  offset="0" style="stop-color:#FFC444"/>
				<stop  offset="0.9964" style="stop-color:#F36F56"/>
			</linearGradient>
			<path style="fill:url(#SVGID_00000023246176538275072850000000197814564391525249_);" d="M2004.359,2439.388l334.57-50.386
				c3.629-0.547,7.327-0.434,10.916,0.332l130.24,27.797c9.085,1.939,8.805,14.998-0.355,16.546l-314.381,53.107
				c-1.079,0.182-2.183,0.153-3.25-0.087l-158.16-35.538C1997.468,2449.705,1997.802,2440.376,2004.359,2439.388z"/>
			
				<linearGradient id="SVGID_00000052094826712383157310000017019975602279955646_" gradientUnits="userSpaceOnUse" x1="2277.3267" y1="2336.6768" x2="2228.99" y2="2462.3523">
				<stop  offset="0" style="stop-color:#FFC444"/>
				<stop  offset="0.9964" style="stop-color:#F36F56"/>
			</linearGradient>
			<path style="fill:url(#SVGID_00000052094826712383157310000017019975602279955646_);" d="M2004.359,2429.721l334.57-50.386
				c3.629-0.546,7.327-0.434,10.916,0.332l130.24,27.797c9.085,1.938,8.805,14.998-0.355,16.545l-314.381,53.107
				c-1.079,0.182-2.183,0.153-3.25-0.087l-158.16-35.538C1997.468,2440.038,1997.802,2430.709,2004.359,2429.721z"/>
			
				<linearGradient id="SVGID_00000183251053026614479660000009267984222656080807_" gradientUnits="userSpaceOnUse" x1="2228.1428" y1="2386.0684" x2="2367.6274" y2="2679.1882">
				<stop  offset="0" style="stop-color:#FFC444"/>
				<stop  offset="0.9964" style="stop-color:#F36F56"/>
			</linearGradient>
			<path style="fill:url(#SVGID_00000183251053026614479660000009267984222656080807_);" d="M2004.359,2421.635l334.57-50.386
				c3.629-0.547,7.327-0.434,10.916,0.332l130.24,27.796c9.085,1.939,8.805,14.999-0.355,16.546l-314.381,53.108
				c-1.079,0.182-2.183,0.153-3.25-0.088l-158.16-35.538C1997.468,2431.952,1997.802,2422.623,2004.359,2421.635z"/>
			
				<linearGradient id="SVGID_00000084495041445293555610000007578227589521160379_" gradientUnits="userSpaceOnUse" x1="2277.3267" y1="2318.9236" x2="2228.9902" y2="2444.5986">
				<stop  offset="0" style="stop-color:#FFC444"/>
				<stop  offset="0.9964" style="stop-color:#F36F56"/>
			</linearGradient>
			<path style="fill:url(#SVGID_00000084495041445293555610000007578227589521160379_);" d="M2004.359,2411.968l334.57-50.386
				c3.629-0.546,7.327-0.434,10.916,0.332l130.24,27.797c9.085,1.939,8.805,14.998-0.355,16.545l-314.381,53.108
				c-1.079,0.182-2.183,0.153-3.25-0.087l-158.16-35.539C1997.468,2422.284,1997.802,2412.955,2004.359,2411.968z"/>
		</g>
		<g>
			
				<linearGradient id="SVGID_00000077283337459311394240000000764133001161034639_" gradientUnits="userSpaceOnUse" x1="-164.546" y1="1405.2294" x2="380.3855" y2="1405.2294" gradientTransform="matrix(-1 0 0 1 1770.3242 0)">
				<stop  offset="0" style="stop-color:#FF9085"/>
				<stop  offset="1" style="stop-color:#FB6FBB"/>
			</linearGradient>
			<path style="fill:url(#SVGID_00000077283337459311394240000000764133001161034639_);" d="M1429.417,1512.837
				c-25.052-31.374-39.479-68.208-39.479-107.608c0-114.569,121.987-207.445,272.466-207.445s272.466,92.876,272.466,207.445
				c0,114.569-121.988,207.445-272.466,207.445c-56.398,0-108.792-13.046-152.263-35.391c-28.734,4.902-73.336,13.138-96.873,17.519
				c-6.93,1.289-12.609-5.487-10.127-12.086L1429.417,1512.837z"/>
			<g style="opacity:0.3;">
				
					<linearGradient id="SVGID_00000128442835218670622660000007697094134257361798_" gradientUnits="userSpaceOnUse" x1="-92.6193" y1="1261.8827" x2="380.2643" y2="1884.6603" gradientTransform="matrix(-1 0 0 1 1770.3242 0)">
					<stop  offset="0" style="stop-color:#FF9085"/>
					<stop  offset="1" style="stop-color:#FB6FBB"/>
				</linearGradient>
				<path style="fill:url(#SVGID_00000128442835218670622660000007697094134257361798_);" d="M1513.304,1449.129
					c61.096-25.679,128.28,28.526,170.283-9.288c42.341-38.118-3.4-113.481,37.152-167.187
					c19.335-25.607,51.82-37.723,88.982-41.958c75.287,36.913,125.148,101.288,125.148,174.533
					c0,114.569-121.988,207.445-272.466,207.445c-56.398,0-108.792-13.046-152.263-35.391c-22.671,3.868-55.214,9.81-79.502,14.297
					C1448.555,1498.694,1481.51,1462.493,1513.304,1449.129z"/>
			</g>
		</g>
	</g>
</g>
</svg>
