<svg width="16" height="18" viewBox="0 0 16 18" fill="none" xmlns="http://www.w3.org/2000/svg">
<g clip-path="url(#clip0_7_7826)">
<path d="M5.71429 4.21875C5.71429 3.04668 6.73929 2.09375 8 2.09375C9.26071 2.09375 10.2857 3.04668 10.2857 4.21875V5.8125H5.71429V4.21875ZM4 5.8125H1.71429C0.767857 5.8125 0 6.52637 0 7.40625V14.3125C0 16.0723 1.53571 17.5 3.42857 17.5H12.5714C14.4643 17.5 16 16.0723 16 14.3125V7.40625C16 6.52637 15.2321 5.8125 14.2857 5.8125H12V4.21875C12 2.16348 10.2107 0.5 8 0.5C5.78929 0.5 4 2.16348 4 4.21875V5.8125ZM4.85714 7.40625C5.08447 7.40625 5.30249 7.49021 5.46323 7.63965C5.62398 7.78909 5.71429 7.99178 5.71429 8.20312C5.71429 8.41447 5.62398 8.61716 5.46323 8.7666C5.30249 8.91604 5.08447 9 4.85714 9C4.62981 9 4.4118 8.91604 4.25105 8.7666C4.09031 8.61716 4 8.41447 4 8.20312C4 7.99178 4.09031 7.78909 4.25105 7.63965C4.4118 7.49021 4.62981 7.40625 4.85714 7.40625ZM10.2857 8.20312C10.2857 7.99178 10.376 7.78909 10.5368 7.63965C10.6975 7.49021 10.9155 7.40625 11.1429 7.40625C11.3702 7.40625 11.5882 7.49021 11.7489 7.63965C11.9097 7.78909 12 7.99178 12 8.20312C12 8.41447 11.9097 8.61716 11.7489 8.7666C11.5882 8.91604 11.3702 9 11.1429 9C10.9155 9 10.6975 8.91604 10.5368 8.7666C10.376 8.61716 10.2857 8.41447 10.2857 8.20312Z" fill="black"/>
</g>
<defs>
<clipPath id="clip0_7_7826">
<rect width="16" height="17" fill="white" transform="translate(0 0.5)"/>
</clipPath>
</defs>
</svg>
